HIERARCHY
ROOT root
{
	OFFSET	0	13.1	24.9
	CHANNELS 6  Xposition Yposition Zposition Xrotation Yrotation Zrotation
	JOINT spine_1
	{
		OFFSET	0	9.99999	0
		CHANNELS 3  Xrotation Yrotation Zrotation
		JOINT spine_2
		{
			OFFSET	0	112	-10
			CHANNELS 3  Xrotation Yrotation Zrotation
			JOINT spine_3
			{
				OFFSET	0	206.5	19.3
				CHANNELS 3  Xrotation Yrotation Zrotation
				JOINT spine_4
				{
					OFFSET	0	110.4	14.6
					CHANNELS 3  Xrotation Yrotation Zrotation
					JOINT neck_1
					{
						OFFSET	0	71.8	-50.3
						CHANNELS 3  Xrotation Yrotation Zrotation
						JOINT neck_2
						{
							OFFSET	0	86.2	-25.8
							CHANNELS 3  Xrotation Yrotation Zrotation
							JOINT head_ee
							{
								OFFSET	0	179.8	-8.7
								CHANNELS 3  Xrotation Yrotation Zrotation
								End Site
								{
									OFFSET	1	0	0
								}
							}
						}
					}
					JOINT left_clavicle
					{
						OFFSET	-43.2	22.4	-70.8
						CHANNELS 3  Xrotation Yrotation Zrotation
						JOINT left_shoulder
						{
							OFFSET	-93.9	-5.79999	48.7
							CHANNELS 3  Xrotation Yrotation Zrotation
							JOINT left_elbow
							{
								OFFSET	-291.4	-30.8	15.2
								CHANNELS 3  Xrotation Yrotation Zrotation
								JOINT left_lowarm_twist
								{
									OFFSET	-110.7	-3.89999	13.6
									CHANNELS 3  Xrotation Yrotation Zrotation
									JOINT left_hand
									{
										OFFSET	-110.7	-3.89999	13.6
										CHANNELS 3  Xrotation Yrotation Zrotation
										JOINT left_ee
										{
											OFFSET	-80.8	-5.10001	12.1
											CHANNELS 3  Xrotation Yrotation Zrotation
											End Site
											{
												OFFSET	1	0	0
											}
										}
									}
								}
							}
						}
					}
					JOINT right_clavicle
					{
						OFFSET	43.2	22.4	-70.8
						CHANNELS 3  Xrotation Yrotation Zrotation
						JOINT right_shoulder
						{
							OFFSET	93.9	-5.79999	48.7
							CHANNELS 3  Xrotation Yrotation Zrotation
							JOINT right_elbow
							{
								OFFSET	291.4	-30.8	15.2
								CHANNELS 3  Xrotation Yrotation Zrotation
								JOINT right_lowarm_twist
								{
									OFFSET	110.7	-3.89999	13.6
									CHANNELS 3  Xrotation Yrotation Zrotation
									JOINT right_hand
									{
										OFFSET	110.7	-3.89999	13.6
										CHANNELS 3  Xrotation Yrotation Zrotation
										JOINT right_ee
										{
											OFFSET	80.8	-5.10001	12.1
											CHANNELS 3  Xrotation Yrotation Zrotation
											End Site
											{
												OFFSET	1	0	0
											}
										}
									}
								}
							}
						}
					}
				}
			}
		}
	}
	JOINT left_hip
	{
		OFFSET	-82.8	-127.5	0.300001
		CHANNELS 3  Xrotation Yrotation Zrotation
		JOINT left_knee
		{
			OFFSET	-28.2	-396.7	2.2
			CHANNELS 3  Xrotation Yrotation Zrotation
			JOINT left_ankle
			{
				OFFSET	-11.7	-411.3	35.4
				CHANNELS 3  Xrotation Yrotation Zrotation
				JOINT left_toes
				{
					OFFSET	0	-60	-88.6
					CHANNELS 3  Xrotation Yrotation Zrotation
					JOINT left_foot_ee
					{
						OFFSET	-22.5	-16.5	-42.2
						CHANNELS 3  Xrotation Yrotation Zrotation
						End Site
						{
							OFFSET	1	0	0
						}
					}
				}
			}
		}
	}
	JOINT right_hip
	{
		OFFSET	82.8	-127.5	0.300001
		CHANNELS 3  Xrotation Yrotation Zrotation
		JOINT right_knee
		{
			OFFSET	28.2	-396.7	2.2
			CHANNELS 3  Xrotation Yrotation Zrotation
			JOINT right_ankle
			{
				OFFSET	11.7	-411.3	35.4
				CHANNELS 3  Xrotation Yrotation Zrotation
				JOINT right_toes
				{
					OFFSET	0	-60	-88.6
					CHANNELS 3  Xrotation Yrotation Zrotation
					JOINT right_foot_ee
					{
						OFFSET	22.5	-16.5	-42.2
						CHANNELS 3  Xrotation Yrotation Zrotation
						End Site
						{
							OFFSET	1	0	0
						}
					}
				}
			}
		}
	}
}
MOTION
Frames: 16
Frame Time: 0.02
1334.49 721.686 -744.427 -164.833 -72.6792 -174.926 2.27601 0.591724 3.60464 2.28317 0.361308 3.63493 2.3054 -0.264509 3.64324 2.28702 0.313802 3.63933 -14.7031 13.3414 0.548344 -15.2721 25.1768 5.0585 -0.0 0.0 -0.0 0.792034 12.6965 2.81264 7.88686 -24.1679 50.1949 3.06406 -56.6101 1.65045 -26.2325 -1.61966 2.90721 -2.49731 10.1729 -11.8566 -0.0 0.0 -0.0 11.0036 19.6548 -21.6871 -39.9305 28.0422 -62.5039 0.60927 16.7947 -0.0899411 1.05361 -0.0359295 0.129766 1.4811 -14.582 -15.3787 0.0 0.0 0.0 -5.30952 -9.33762 20.0098 -6.21026 0.205425 0.930489 10.9194 21.1935 -1.5901 38.7992 -0.0 -0.0 -0.0 0.0 -0.0 39.9977 6.63629 4.38578 -3.10819 -0.115438 -0.462981 -24.8836 -28.2703 -3.97394 -39.988 0.0 0.0 0.0 0.0 0.0 
1364.29 719.664 -730.981 -168.977 -72.6222 -179.575 2.00669 0.69266 3.68088 2.01411 0.457198 3.71743 2.0437 -0.201037 3.74001 2.0244 0.391731 3.72489 -13.7571 13.0739 -0.759899 -14.2633 25.3929 3.50789 -0.0 0.0 -0.0 0.540236 15.6338 2.69376 5.72562 -23.4028 50.9315 3.3481 -58.899 1.89073 -26.0728 -1.60593 2.89204 -2.38817 9.54442 -11.4591 -0.0 0.0 -0.0 11.2338 19.3717 -22.2283 -39.3833 28.3759 -62.8515 0.641033 17.6173 -0.0993374 0.675796 -0.0233205 0.0831589 1.35419 -15.2935 -14.8008 0.0 0.0 0.0 -5.75513 -9.43854 20.2352 -12.1373 0.306458 1.83397 13.7762 22.8841 -2.00163 40.1724 -0.0 -0.0 -0.0 0.0 -0.0 39.9482 6.6935 4.58008 -13.4669 -0.316254 -2.03773 -20.887 -28.9756 -3.3485 -35.6214 0.0 0.0 0.0 0.0 0.0 
1397.84 707.524 -726.198 -169.996 -73.409 179.799 2.10926 0.539946 3.71491 2.11688 0.302632 3.74169 2.1362 -0.351755 3.7374 2.1168 0.242486 3.74606 -10.2637 12.209 -2.17707 -10.4659 24.4683 1.05736 -0.0 0.0 -0.0 -0.355157 17.6508 1.52357 4.19992 -24.5979 51.7182 3.59053 -60.6388 2.10022 -24.147 -1.44368 2.70606 -2.30463 9.1312 -11.1174 -0.0 0.0 -0.0 11.3828 19.4093 -22.5644 -39.5611 28.2908 -62.3038 0.663839 18.2033 -0.106351 0.635527 -0.0219584 0.0781962 1.45935 -14.8904 -15.3423 0.0 0.0 0.0 -7.42727 -9.17665 20.8846 -16.7661 0.320122 2.54385 14.2942 24.7749 -2.09304 40.2701 -0.0 -0.0 -0.0 0.0 -0.0 39.016 5.9875 4.01205 -18.7815 -0.308148 -2.85282 -18.9605 -29.0529 -3.03879 -32.4429 0.0 0.0 0.0 0.0 0.0 
1422.31 701.943 -718.949 -172.573 -73.6484 177.797 2.01528 0.478413 3.72347 2.02296 0.24068 3.74632 2.0384 -0.42008 3.73049 2.01902 0.173926 3.75001 -8.06204 11.5558 -3.12067 -8.08409 23.7732 -0.529663 -0.0 0.0 -0.0 -2.03897 19.4594 -0.753821 3.35249 -25.9073 54.1738 3.76067 -61.757 2.24932 -22.0482 -1.27411 2.49736 -2.20901 8.74378 -10.6812 -0.0 0.0 -0.0 11.3567 19.3306 -22.5103 -39.3674 28.3944 -62.3147 0.786126 21.277 -0.147669 0.914835 -0.0313341 0.112637 1.60912 -14.4091 -16.1527 0.0 0.0 0.0 -8.48503 -7.63522 20.1082 -18.7411 0.308495 2.84664 10.3293 27.9626 -1.56147 40.0256 -0.0 -0.0 -0.0 0.0 -0.0 38.3094 5.39444 3.91603 -21.5213 -0.274459 -3.27182 -18.3502 -26.7865 -2.8998 -30.6058 0.0 0.0 0.0 0.0 0.0 
1441.92 702.598 -716.974 -172.715 -73.4849 177.257 1.88233 0.550194 3.79806 1.8903 0.30758 3.82532 1.91087 -0.376467 3.81916 1.8906 0.230967 3.8307 -7.77039 10.9789 -3.48103 -7.7607 22.9358 -1.08245 -0.0 0.0 -0.0 -3.26008 20.9716 -2.26533 2.74156 -26.7488 57.0467 3.63799 -60.9588 2.14165 -19.9818 -1.11478 2.28602 -2.06881 8.57587 -9.84292 -0.0 0.0 -0.0 11.3851 19.6812 -22.5513 -38.1922 28.4973 -61.5326 0.897278 23.9641 -0.190433 1.2187 -0.0413425 0.150157 1.71252 -14.0863 -16.7207 0.0 0.0 0.0 -8.24111 -6.26013 19.0786 -20.1254 0.294127 3.05855 5.17982 29.6808 -0.803603 39.607 -0.0 -0.0 -0.0 0.0 -0.0 37.8044 5.65127 4.29528 -23.4251 -0.239267 -3.56184 -17.0351 -23.1367 -2.64041 -29.0503 0.0 0.0 0.0 0.0 0.0 
1472.54 713.472 -715.85 -171.288 -73.3487 178.621 1.77996 0.650555 3.98601 1.78871 0.395807 4.01925 1.81684 -0.330549 4.02514 1.79437 0.308764 4.02686 -6.10744 9.89109 -5.57732 -5.92569 22.3729 -3.77646 -0.0 0.0 -0.0 -4.3232 22.1288 -3.53925 1.08467 -27.2933 59.251 3.37013 -59.0647 1.90961 -18.0703 -0.974298 2.08557 -1.96562 8.54955 -9.17954 -0.0 0.0 -0.0 11.3043 20.1028 -22.3377 -37.3719 27.5143 -61.5723 0.97757 25.8385 -0.224245 0.262138 -0.00916266 0.0322247 1.65129 -15.01 -16.6277 0.0 0.0 0.0 -7.12784 -3.10214 18.3853 -23.2667 0.242562 3.53775 -0.720708 29.0803 0.112892 39.8482 -0.0 -0.0 -0.0 0.0 -0.0 33.1365 6.73882 5.2733 -19.2866 -0.303445 -2.93018 -16.8935 -18.6599 -2.57442 -28.6456 0.0 0.0 0.0 0.0 0.0 
1494.52 720.68 -716.28 -173.204 -73.9944 176.086 1.68092 0.672946 4.16495 1.69047 0.406795 4.19925 1.72093 -0.359068 4.20359 1.69642 0.308712 4.20758 -5.02362 8.89597 -7.38915 -4.69638 21.8772 -6.05219 -0.0 0.0 -0.0 -4.49994 21.3373 -3.98336 -0.16757 -27.7356 61.7486 2.80128 -54.2122 1.43408 -16.3894 -0.856368 1.90556 -1.85861 9.20086 -8.16882 -0.0 0.0 -0.0 11.2466 20.1624 -22.2023 -35.9988 26.7746 -61.5662 0.992283 26.1758 -0.230696 -0.407729 0.0145445 -0.0500393 1.57144 -16.3317 -16.5449 0.0 0.0 0.0 -6.93376 -1.07524 17.9836 -25.8066 0.181709 3.92274 -6.6758 28.5064 1.05305 39.7464 -0.0 -0.0 -0.0 0.0 -0.0 30.3537 7.60029 5.6845 -16.1285 -0.321647 -2.44602 -17.0129 -15.027 -2.56946 -28.4702 0.0 0.0 0.0 0.0 0.0 
1511.12 728.215 -711.034 -175.544 -75.4708 174.553 1.57824 0.648185 4.1044 1.58753 0.385926 4.13725 1.61627 -0.375988 4.13817 1.59249 0.281698 4.14564 -5.18007 8.29331 -8.5062 -4.80388 21.5993 -7.2804 -0.0 0.0 -0.0 -4.84327 20.8283 -4.61085 -1.20641 -27.7467 63.3116 2.38711 -49.7727 1.1075 -14.6613 -0.7407 1.717 -1.75202 10.1651 -7.01986 -0.0 0.0 -0.0 11.353 20.149 -22.4451 -34.1117 26.3424 -61.5974 1.003 26.4203 -0.235445 -0.593056 0.0212729 -0.07275 1.50767 -17.4019 -16.4833 0.0 0.0 0.0 -6.50159 0.434442 17.6242 -28.6685 0.0927596 4.3529 -12.7852 29.3952 2.04417 39.7047 -0.0 -0.0 -0.0 0.0 -0.0 28.1914 8.25799 6.06112 -14.6526 -0.320999 -2.21959 -17.0528 -12.3529 -2.56512 -28.2833 0.0 0.0 0.0 0.0 0.0 
1529.48 731.118 -707.33 -176.602 -76.098 173.739 1.48965 0.633223 4.14812 1.49915 0.368221 4.17993 1.52711 -0.407763 4.17626 1.50287 0.256321 4.18827 -7.40965 9.08177 -6.68672 -7.26115 21.6674 -4.79015 -0.0 0.0 -0.0 -4.82131 19.7114 -4.85803 -1.48523 -27.7872 64.5077 1.8911 -43.1265 0.747393 -11.4516 -0.541229 1.358 -1.69563 11.3293 -6.10752 -0.0 0.0 -0.0 11.3955 20.2937 -22.5313 -32.0005 26.1731 -61.3316 1.0444 27.3547 -0.254166 -0.82997 0.0299819 -0.101751 1.39724 -18.5371 -16.1477 0.0 0.0 0.0 -5.09606 1.95686 14.8891 -30.5629 0.0220961 4.63503 -18.8735 29.5295 3.03418 38.0689 -0.0 -0.0 -0.0 0.0 -0.0 26.4337 8.76973 6.54143 -15.9507 -0.321878 -2.41874 -15.7159 -8.86677 -2.3571 -26.957 0.0 0.0 0.0 0.0 0.0 
1528.81 734.562 -696.568 -178.675 -76.1994 171.778 1.31977 0.564418 4.15799 1.32934 0.298928 4.18541 1.35264 -0.489779 4.16742 1.32845 0.173936 4.19246 -12.3316 10.3845 -4.24252 -12.5767 22.405 -1.01578 -0.0 0.0 -0.0 -4.68201 17.5303 -5.18054 -1.13901 -27.3386 65.8406 1.47978 -36.2405 0.484268 -7.51567 -0.32463 0.90361 -1.20937 13.7126 -1.93748 -0.0 0.0 -0.0 11.2687 19.0129 -22.3312 -29.2307 27.3125 -60.5551 1.1783 30.2708 -0.318721 -2.19769 0.0825999 -0.268462 0.970376 -22.7247 -14.8528 0.0 0.0 0.0 -2.7038 2.08765 13.3986 -32.1089 -0.04247 4.86348 -24.7927 30.366 4.01453 37.1223 -0.0 -0.0 -0.0 0.0 -0.0 25.9174 10.545 4.72376 -17.4567 -0.317244 -2.64976 -17.0929 -5.75965 -2.56952 -24.7864 0.0 0.0 0.0 0.0 0.0 
1536.3 743.512 -685.286 -179.691 -76.3232 171.344 1.1789 0.541092 4.07638 1.18809 0.280828 4.1025 1.20994 -0.502229 4.08135 1.18674 0.148083 4.10942 -16.5914 10.9526 -2.87359 -17.1394 22.6316 1.38121 -0.0 0.0 -0.0 -4.78665 16.1745 -5.67562 -1.37052 -26.9384 66.6973 1.18426 -30.3969 0.321734 -3.84372 -0.151186 0.467383 -0.694521 16.0337 2.26432 -0.0 0.0 -0.0 10.988 18.3837 -21.7343 -25.1396 27.7172 -59.6999 1.28414 32.46 -0.373821 -3.19084 0.123298 -0.388716 0.676047 -25.2297 -13.9117 0.0 0.0 0.0 0.321655 1.68994 9.93567 -32.2577 -0.0490099 4.88538 -25.5533 29.3331 4.10872 35.0686 -0.0 -0.0 -0.0 0.0 -0.0 25.1614 11.8256 3.68834 -19.0581 -0.305657 -2.89518 -18.0427 -2.47618 -2.72634 -22.584 0.0 0.0 0.0 0.0 0.0 
1542.73 755.178 -677.333 177.54 -76.6176 168.975 1.04719 0.555833 4.20815 1.05699 0.287177 4.23492 1.08042 -0.530696 4.21139 1.0557 0.140455 4.24231 -17.9033 10.3246 -1.98786 -18.445 20.9269 2.21291 -0.0 0.0 -0.0 -4.49931 14.9958 -5.49099 -1.72731 -26.6399 67.6042 0.901807 -24.0714 0.192276 -1.10514 -0.0402474 0.13539 -0.328851 18.5624 5.53205 -0.0 0.0 -0.0 10.6942 15.9437 -21.2021 -22.7021 28.0195 -59.8648 1.44128 35.5234 -0.461703 -4.65961 0.187298 -0.565244 0.190631 -25.0772 -11.0492 0.0 0.0 0.0 3.09858 -1.1863 8.54708 -32.3214 -0.0518296 4.89476 -24.5278 28.9241 3.93339 32.7727 -0.0 -0.0 -0.0 0.0 -0.0 24.3264 14.5721 1.72871 -20.3461 -0.291363 -3.0923 -16.4081 2.29862 -2.50851 -21.0262 0.0 0.0 0.0 0.0 0.0 
1551.0 754.041 -670.111 178.664 -76.6574 170.888 0.968743 0.565133 4.20139 0.978512 0.296888 4.22877 1.00284 -0.525661 4.2065 0.978185 0.144657 4.23669 -18.8148 9.83848 -1.47419 -19.3384 19.7138 2.65233 -0.0 0.0 -0.0 -4.34889 14.1846 -5.43083 -2.25324 -26.3649 68.2027 0.698193 -19.0787 0.117332 0.893657 0.0306289 -0.110024 -0.0596408 20.4676 7.89302 -0.0 0.0 -0.0 10.5895 14.187 -21.0384 -20.3062 28.35 -60.0111 1.57808 38.0133 -0.543613 -5.68622 0.234715 -0.687643 -0.161152 -24.9448 -8.98301 0.0 0.0 0.0 5.01161 -3.24013 7.5601 -32.3782 -0.0543501 4.90311 -23.733 28.6385 3.79881 31.2206 -0.0 -0.0 -0.0 0.0 -0.0 23.7401 16.6066 0.719457 -21.2491 -0.278701 -3.23028 -15.0871 5.78954 -2.33632 -19.8797 0.0 0.0 0.0 0.0 0.0 
1562.3 765.81 -670.617 176.351 -76.5427 168.63 0.784727 0.627499 4.15059 0.794236 0.362351 4.18203 0.823629 -0.465281 4.17185 0.799404 0.198826 4.19297 -19.1227 9.17718 -3.24296 -19.6193 19.3606 0.782288 -0.0 0.0 -0.0 -4.28295 13.9361 -5.37796 -3.30201 -26.037 68.712 0.545749 -15.1283 0.0724716 3.11421 0.0992679 -0.385336 0.231827 23.0607 10.5759 -0.0 0.0 -0.0 10.4879 12.7418 -20.8563 -18.945 27.6287 -59.2497 1.69209 39.9668 -0.615353 -6.43183 0.270526 -0.776003 -0.574982 -24.3915 -6.40563 0.0 0.0 0.0 7.393 -4.47311 7.59647 -32.869 -0.0764731 4.97516 -25.1838 28.5281 4.02837 30.1547 -0.0 -0.0 -0.0 0.0 -0.0 22.7087 18.029 0.1586 -22.1252 -0.264339 -3.36394 -10.9267 9.76557 -1.71955 -19.1266 0.0 0.0 0.0 0.0 0.0 
1576.38 768.715 -670.991 176.253 -77.3644 168.684 0.679555 0.681804 4.17246 0.689142 0.415159 4.2073 0.722965 -0.425734 4.20625 0.698365 0.243297 4.22071 -19.3338 8.68678 -4.59031 -19.7966 19.1066 -0.647369 -0.0 0.0 -0.0 -4.04025 14.0221 -4.95675 -4.38906 -25.7383 69.5612 0.434753 -12.154 0.0462854 4.67609 0.141126 -0.580453 0.441087 24.9241 12.4443 -0.0 0.0 -0.0 10.5697 11.6893 -21.062 -17.452 27.2369 -58.792 1.79255 41.6004 -0.680979 -6.9248 0.294835 -0.834169 -0.866258 -23.9721 -4.57108 0.0 0.0 0.0 8.94242 -5.22598 7.33132 -33.2171 -0.0925428 5.02616 -25.9599 28.5851 4.15379 29.41 -0.0 -0.0 -0.0 0.0 -0.0 21.8721 19.1711 0.142854 -22.7482 -0.252883 -3.45885 -8.06209 12.5766 -1.28592 -18.5988 0.0 0.0 0.0 0.0 0.0 
1589.26 772.534 -682.452 174.797 -78.2634 167.234 0.605271 0.723255 4.24076 0.615159 0.452192 4.2781 0.652623 -0.408642 4.28247 0.627143 0.27218 4.29328 -19.1809 8.26025 -5.57078 -19.5924 18.8068 -1.77177 -0.0 0.0 -0.0 -3.85005 14.3044 -4.58183 -5.10561 -25.3626 70.8808 0.353887 -9.94341 0.030785 5.91954 0.170635 -0.736549 0.623419 26.4091 13.9857 -0.0 0.0 -0.0 10.4629 10.982 -20.8375 -16.0159 26.9196 -58.2353 1.9036 43.3147 -0.755952 -7.28519 0.312923 -0.876559 -1.0997 -23.6789 -3.1121 0.0 0.0 0.0 10.7011 -5.67832 6.96264 -32.3708 -0.0540178 4.90201 -25.9687 28.6539 4.15701 28.8864 -0.0 -0.0 -0.0 0.0 -0.0 20.6524 20.0344 0.506213 -23.6411 -0.234667 -3.59466 -5.64516 14.5517 -0.909151 -18.0732 0.0 0.0 0.0 0.0 0.0 
